<?xml version="1.0" encoding="utf-8"?>
<!-- Generator: Adobe Illustrator 24.0.1, SVG Export Plug-In . SVG Version: 6.00 Build 0)  -->
<svg version="1.1" id="Layer_1" xmlns="http://www.w3.org/2000/svg" xmlns:xlink="http://www.w3.org/1999/xlink" x="0px" y="0px"
	 viewBox="0 0 1469.85 337.17" style="enable-background:new 0 0 1469.85 337.17;" xml:space="preserve">
<style type="text/css">
	.st0{fill:#FFFFFF;}
	.st1{fill:#002D74;}
	.st2{fill:#FF4D00;}
	.st3{font-family:'Flexo-Bold';}
	.st4{font-size:112px;}
</style>
<g>
	<path class="st0" d="M1428.56,41.73H910.1c-31.35,0-54.35,24.15-60.44,55.61c-6.11,31.48-34.34,173.39-34.34,176.4
		c0,11.96,9.65,21.64,21.58,21.71h518.47c31.33,0,54.33-24.17,60.43-55.64c6.1-31.43,34.34-173.34,34.34-176.39
		C1450.12,51.49,1440.47,41.79,1428.56,41.73"/>
	<path class="st1" d="M1022.4,199.38l5.64-25.15h7.77c11.01,0,20.18,3.09,19.91,13.22c-0.24,11.47-12.01,16.13-24.84,16.13
		c-2,0-3.92,0-5.73-0.07C1021.59,203.2,1022.4,199.38,1022.4,199.38 M1080.65,188.01c0-15.09-10.68-21.67-19.31-22.34
		c10.9-1.8,25.33-9.83,25.33-24.59c0-15.73-15.83-24.15-39.7-24.15c-10.84,0-21.39,0.94-30.81,2.42l-17.1,75.88
		c0,0-5.91,19.6,10.91,23.66c4.73,1.2,7.91,1.61,13.16,1.91C1067.75,223.24,1080.65,203.2,1080.65,188.01 M1037.01,134.54
		c1.82-0.28,6.15-0.55,10.26-0.55c9.01,0,15.36,3.14,15.18,10.44c-0.24,8.84-9.19,13.85-22.14,13.85h-5.02
		c-3.65,0-2.58-4.2-2.58-4.2L1037.01,134.54z"/>
	<path class="st1" d="M1189.77,221.08c3.63,0,10.48-1.46,12.79-11.83c1.87-8.29,4.99-22.35,4.99-22.35c2.42,0.16,5.8,0.6,9.71,0.6
		c38.21,0,51.54-24.58,51.54-41.26c0-18.22-12.66-28.65-40.33-28.76c-11.32-0.12-21.09,0.33-30.4,2.46l-22.47,101.15H1189.77z
		 M1220.51,135.28c1.96-0.28,5.37-0.5,9.91-0.5c8.88,0,16.25,2.63,16.25,13.29c0,10.86-8.24,21.34-24.34,21.47
		c-1.04,0-1.99-0.03-2.9-0.08c-7.2,0-5.18-5.97-5.18-5.97L1220.51,135.28z"/>
	<path class="st1" d="M1119.53,176.39c0-16.47,10.69-41.04,35.14-41.04c6.41,0,17.89,1.65,24.5,7.54c0,0,2.45-8.35,3.17-11.83
		c0.68-3.42-0.57-9.09-11.07-12.47c-6.8-2.21-12.1-3.25-19.61-3.25c-38.29,0-58.13,31.46-58.13,62.4
		c0,33.08,22.15,44.26,44.83,44.26c8.14,0,13.48-0.85,18.61-2.81c6.27-2.15,7.3-7.79,7.3-7.79l3.78-17
		c-9.64,7.08-16.82,8.19-23.34,8.19C1128.8,202.57,1119.53,192.34,1119.53,176.39"/>
	<path class="st2" d="M985.67,152.04c0.77,1.04,9.92,12.43,1.51,25.9c-9.23,14.74-34.41,31.53-41.54,34.04
		c-13.89,5.82-23.26-4.94-24.08-6.06c-2.57-3.34-3.21-4.06-4.46-6.48c-0.26,0.42,26.63-12.1,36.27-28.27
		c10.42-13.89,11.32-41.15-0.06-46.25c3.43,1.75,11.55,6.38,18.9,12.92C979.51,144.03,985.82,152.15,985.67,152.04"/>
	<path class="st1" d="M957.8,163.15c5.93-14.44,4.97-33.99-4.49-38.23c-8.66-4.11-18.5,7.5-19,8.09c0,0-3.23,3.98-5.69,9.54
		c1.68,0.93,4.94,2.54,4.94,2.54C940.23,148.29,949.25,153.9,957.8,163.15"/>
	<path class="st2" d="M1337.28,152.04c0.77,1.04,9.91,12.43,1.48,25.9c-9.21,14.74-34.4,31.53-41.53,34.04
		c-13.87,5.82-23.27-4.94-24.06-6.06c-2.59-3.34-3.2-4.06-4.46-6.48c-0.28,0.42,26.62-12.1,36.25-28.27
		c10.44-13.89,11.35-41.15-0.05-46.25c3.45,1.75,11.55,6.38,18.88,12.92C1331.09,144.03,1337.42,152.15,1337.28,152.04"/>
	<path class="st1" d="M1309.41,163.15c5.92-14.44,4.96-33.99-4.51-38.23c-8.68-4.11-18.53,7.5-18.98,8.09c0,0-3.25,3.98-5.72,9.54
		c1.67,0.93,4.95,2.54,4.95,2.54C1291.83,148.29,1300.84,153.9,1309.41,163.15"/>
</g>
<text transform="matrix(1 0 0 1 11.952 203.1436)" class="st0 st3 st4">Fondo Editorial</text>
</svg>
