<?xml version="1.0" encoding="utf-8"?>
<!-- Generator: Adobe Illustrator 24.0.1, SVG Export Plug-In . SVG Version: 6.00 Build 0)  -->
<svg version="1.1" id="Layer_1" xmlns="http://www.w3.org/2000/svg" xmlns:xlink="http://www.w3.org/1999/xlink" x="0px" y="0px"
	 viewBox="0 0 444 478" style="enable-background:new 0 0 444 478;" xml:space="preserve">
<style type="text/css">
	.st0{fill:#FFFFFF;}
</style>
<path class="st0" d="M426.67,307.33c-9.43,0-17.07,7.64-17.07,17.07v102.4c0,9.43-7.64,17.07-17.07,17.07H51.2
	c-9.43,0-17.07-7.64-17.07-17.07V324.4c0-9.43-7.64-17.07-17.07-17.07C7.64,307.33,0,314.97,0,324.4v102.4
	C0,455.08,22.92,478,51.2,478h341.33c28.28,0,51.2-22.92,51.2-51.2V324.4C443.73,314.97,436.09,307.33,426.67,307.33"/>
<path class="st0" d="M221.87,0.13c-9.43,0-17.07,7.64-17.07,17.07v334.27l-56.2-56.2c-6.78-6.55-17.58-6.36-24.13,0.42
	c-6.39,6.61-6.39,17.1,0,23.71l85.33,85.33c6.66,6.67,17.46,6.69,24.14,0.03c0.01-0.01,0.02-0.02,0.03-0.03l85.33-85.33
	c6.55-6.78,6.36-17.58-0.42-24.13c-6.61-6.39-17.1-6.39-23.71,0l-56.24,56.2V17.2C238.93,7.77,231.29,0.13,221.87,0.13"/>
</svg>
